# xmcd
#
# Track frame offsets:
#	150
#	14160
#	24209
#	36316
#	46104
#	57467
#	74380
#	84344
#	92799
#	104115
#
# Disc length: 1609 seconds
#
# Revision: 1
# Processed by: cddbd v1.5.1PL2 Copyright (c) Steve Scherf et al.
# Submitted via: audiograbber 1.83.01
#
DISCID=8406470a
DTITLE=Glen Campbell - Rhinestone Cowboy
DYEAR=1900
DGENRE=Country
TTITLE0=Rhinestone Cowboy
TTITLE1=Try a Little Kindness
TTITLE2=By the Time I get to Phoenix
TTITLE3=Dreams of the Everyday Hoisewife
TTITLE4=It's Only Make Believe
TTITLE5=Southern Nights
TTITLE6=Gentle on My Mind
TTITLE7=Wichita Lineman
TTITLE8=Galveston
TTITLE9=Please Come to Boston
EXTD=
EXTT0=
EXTT1=
EXTT2=
EXTT3=
EXTT4=
EXTT5=
EXTT6=
EXTT7=
EXTT8=
EXTT9=
PLAYORDER=
